<?xml version="1.0" encoding="UTF-8"?>
<svg version="1.1" viewBox="0 0 2048 403" width="579" height="114" xmlns="http://www.w3.org/2000/svg">
<path transform="translate(0)" d="m0 0h2048v403h-2048z" fill="#FDFDFD"/>
<path transform="translate(3,4)" d="m0 0h899v393h-899z" fill="#12457B"/>
<path transform="translate(34,47)" d="m0 0h55l6 7 12 19 16 25 11 17 16 25 13 20 12 19 7 9 3 1 10-15 16-25 15-23 14-22 10-15 9-14 15-23 4-5h56v300l-1 1h-49l-2-4v-184l-1-20-8 10-10 16-11 17-19 29-21 32-11 17-15 23-3 1-7-8-12-19-13-20-15-23-11-17-16-25-20-30-1-3h-3v206l-1 1-9 1h-42v-300z" fill="#FDFDFD"/>
<path transform="translate(644,47)" d="m0 0h55l7 10 12 21 13 22 34 58 13 22 10 17 26 44 3 4v2h3l-1-105 1-94 1-1h49l2 3v294l-1 3-4 1h-50l-5-5-17-29-14-24-17-29-13-22-28-48-13-22-11-19-3-1-1 197-5 2h-46l-1-2v-298z" fill="#FDFDFD"/>
<path transform="translate(1843,47)" d="m0 0h58l17 38 15 33 13 29 16 35 12 27 15 33 19 42 27 60 1 5-58-1-9-21-13-30-13-29-16-36-17-37-12-27-16-35-9-21v-2h-2l-1 5-12 26-28 62-13 29-5 10v2l77 1 12 25 11 24v2l-124 1-5 10-9 20-10 21h-56l2-6 19-42 18-40 11-24 16-36 13-28 13-29 19-42 18-40z" fill="#B12D2E"/>
<path transform="translate(1248,47)" d="m0 0h56l8 16 16 35 13 29 19 42 18 40 15 33 18 40 16 36 13 28v2h-56l-8-16-16-37-15-32-15-33-16-35-12-27-15-33-11-24-2-1-1 7-8 18-7 15-15 33-10 23-14 30-4 9h79l11 24 11 25v2l-124 1-17 38-6 13h-57l9-20 11-24 9-20 13-29 18-40 13-29 16-36 16-35 16-36 13-30z" fill="#B12D2E"/>
<path transform="translate(1460,47)" d="m0 0h51v121l1 3h124l1-124h50l1 2-1 299h-50l-1-123-8-1h-117l-1 124h-50z" fill="#B02D2E"/>
<path transform="translate(364,47)" d="m0 0h48l2 1 1 4 1 187 3 14 8 16 11 13 15 10 12 5 12 3 7 1h15l14-3 14-7 12-9 7-7 7-11 6-12 3-15 1-188 2-2h49l1 1v178l-2 27-6 20-9 19-8 11-9 11-10 10-14 10-16 9-26 9-17 2h-20l-15-2-24-8-19-10-12-9-13-12-12-16-9-16-6-15-3-11-2-16-1-22v-168z" fill="#FDFDFD"/>
<path transform="translate(935,47)" d="m0 0h228v51l-1 1h-88v249h-51v-249h-87l-1-1z" fill="#B02D2E"/>
<path transform="translate(935,385)" d="m0 0h1101l1 13h-1102l-1-2z" fill="#B12D2E"/>
<path transform="translate(935,3)" d="m0 0h1101v12h-1101z" fill="#B12D2E"/>
</svg>
