<?xml version="1.0" encoding="UTF-8"?>
<svg version="1.1" viewBox="0 0 2048 491" width="579" height="139" xmlns="http://www.w3.org/2000/svg">
<path transform="translate(0)" d="m0 0h2048v491h-2048z" fill="#FDFDFD"/>
<path transform="translate(3,5)" d="m0 0 898 1 1 7v386h-899z" fill="#11437A"/>
<path transform="translate(50,48)" d="m0 0h38l5 5 13 20 11 17 16 25 11 17 16 25 14 22 7 10 4 1 9-13 10-16 12-18 10-16 15-23 13-20 16-25 7-9 7-2h49l1 1v300l-9 1-41-1-2-4v-204l-5 5-17 26-12 19-32 48-10 16-15 23-6 8-4-2-6-7-10-16-22-34-17-26-11-17-14-22-13-19-1-1-1 3-1 203-1 1-32 1h-18l-1-1v-300z" fill="#FDFDFD"/>
<path transform="translate(645,48)" d="m0 0h47l8 1 15 25 17 29 14 24 10 17 13 22 14 24 16 27 13 22 6 9 1-12v-134l1-53 1-1h47l3 1 1 2v296l-2 2-35 1h-17l-5-4-17-29-14-24-17-29-13-22-17-29-14-24-16-27-7-12-2-1-1 198-2 2-24 1h-23l-2-1-1-3v-297z" fill="#FDFDFD"/>
<path transform="translate(1844,48)" d="m0 0h56l8 16 13 29 15 33 18 40 16 35 13 29 18 40 15 33 13 29 7 15-1 3h-55l-3-3-11-25-14-32-13-29-18-40-19-42-27-60-2-7h-2l-1 5-13 28-5 11-14 32-7 15-15 33-5 10h77l5 8 16 35 3 6v2l-125 1-3 9-16 36-4 6-2 1h-49l-5-1 2-6 16-35 16-36 13-28 16-36 16-35 16-36 13-28 16-36 11-24z" fill="#B02D2E"/>
<path transform="translate(1249,48)" d="m0 0h55l8 16 27 60 16 35 13 29 18 40 15 33 13 29 18 40 8 18v2h-55l-2-1-13-29-16-36-14-30-16-35-13-29-19-42-16-35-2 3-11 25-16 35-12 27-15 33-5 10h79l6 13 16 36-1 3h-121l-3 3-16 36-6 12-2 1h-53l-1-3 16-35 9-20 34-76 19-42 30-67 18-40 8-18z" fill="#B02D2E"/>
<path transform="translate(1461,48)" d="m0 0h50v125l126-1v-124h50l1 1v300l-1 1h-47l-3-1-1-124-124 1-1 123-1 1h-49l-1-1v-300z" fill="#B02D2E"/>
<path transform="translate(364,48)" d="m0 0h40l10 1 1 3 1 187 3 15 8 16 8 10 9 8 14 8 17 5 5 1h24l15-5 16-10 13-13 9-16 3-8 2-12 1-189 3-1h47l2 1v183l-2 22-6 21-8 16-7 11-8 10-9 10-10 8-14 9-19 9-20 6-12 1h-20l-18-2-21-7-16-8-11-7-14-12-10-11-12-18-8-17-5-16-2-15-1-16v-176z" fill="#FDFDFD"/>
<path transform="translate(935,48)" d="m0 0h227l1 1v50l-1 1-87 1-1 94v154l-1 1h-47l-3-1-1-248-87-1z" fill="#B02D2E"/>
<path transform="translate(935,4)" d="m0 0h1101l1 3v9l-1 1h-1100l-2-1v-11z" fill="#B02D2E"/>
<path transform="translate(935,386)" d="m0 0h1101l1 2v10l-1 1h-1102v-12z" fill="#B02D2E"/>
<path transform="translate(666,459)" d="m0 0h85l14 1 1 4-1 1h-732l-1-4 1-1z" fill="#093282"/>
<path transform="translate(1362,459)" d="m0 0h648l26 1 1 4-1 1h-732l-1-4 1-1z" fill="#082D83"/>
<path transform="translate(1304,460)" d="m0 0h2v2h73l113 1h232l225-1h82l5 2v1h-732l-1-4z" fill="#10437B"/>
<path transform="translate(1253,438)" d="m0 0h20l6 3 3 4 1 3v8l-4 6-6 2 3 8 8 14v1h-6l-8-14-3-5v-2h-9l-1 21h-6v-48z" fill="#0A3281"/>
<path transform="translate(981,438)" d="m0 0h22l6 3 3 5 1 8-3 6-5 4h-2l4 10 7 13h-6l-6-9-6-11-9-2v22h-6l-1-48z" fill="#0B3281"/>
<path transform="translate(1123,438)" d="m0 0 5 1 7 10 14 25 2 5h2l-2-8v-33h5l1 1v48h-5l-4-5-10-17-8-14-2-3v39h-6v-48z" fill="#10427B"/>
<path transform="translate(1212,438)" d="m0 0h27v5l-21 1v14h18l1 4-1 1h-19v19h23v5h-28l-1-1v-47z" fill="#10437B"/>
<path transform="translate(942,438)" d="m0 0h26l1 2-1 3-20 1v14h17l1 5-18 1-1 18h22l1 4-1 1h-27l-1-1v-47z" fill="#0A3281"/>
<path transform="translate(829,438)" d="m0 0h27l-1 5-20 1v14h17l1 5-18 1-1 18h22l1 5h-28l-1-4v-44z" fill="#0A3381"/>
<path transform="translate(1084,438)" d="m0 0h26v5h-21v15h18v5h-18v18l22 1v5h-28v-48z" fill="#10427B"/>
<path transform="translate(801,437)" d="m0 0 9 2 6 4v2l-7-1-4-1h-7l-5 4v5l4 4 16 7 4 5 1 7-3 7-5 4-3 1h-11l-8-4-3-5h4l8 3h10l4-3v-7l-4-4-14-6-6-7v-7l3-6 5-3z" fill="#0A3281"/>
<path transform="translate(1051,438)" d="m0 0h13l6 4 1 4-9-3h-7l-6 3-4 5-1 3v16l4 8 4 3 8 1 8-3h4l-2 4-6 4h-12l-7-4-5-6-3-8v-13l4-11 6-5z" fill="#0A3481"/>
<path transform="translate(1168,438)" d="m0 0h34v5l-11 1-3 1-1 42h-5l-1-3v-39l-1-1-13-1-1-4z" fill="#0E3E7D"/>
<path transform="translate(905,438)" d="m0 0 5 1 1 42 20 1 1 4-1 1h-26l-1-4v-44z" fill="#10437B"/>
<path transform="translate(1258,442)" d="m0 0h9l8 2 3 5v6l-4 4-5 2h-11l-2-3v-14z" fill="#FDFDFD"/>
<path transform="translate(868,438)" d="m0 0 5 1 1 42 21 1v5h-27z" fill="#10437B"/>
<path transform="translate(987,442)" d="m0 0h10l7 2 3 4v8l-5 4-4 1h-11l-1-1v-16z" fill="#FDFDFD"/>
<path transform="translate(1251,439)" d="m0 0 2 4 5-1-1 2v14l1 2 11 1-1 4-10-1-1 23h-6z" fill="#10437B"/>
<path transform="translate(1083,439)" d="m0 0h11l-3 2-4 2-1 2v17l-1 15 3-1 1 5 22 1v5h-28z" fill="#082D83"/>
<path transform="translate(1122,439)" d="m0 0 5 4 1 7v37h-6z" fill="#10437B"/>
<path transform="translate(1123,438)" d="m0 0 5 1 7 10 14 25 4 9v2h2l1-2v3h-5l-7-10-11-20-5-8-3-6-2 3z" fill="#0E3E7D"/>
<path transform="translate(1086,456)" d="m0 0h2l1 2h18v5h-18l-1 13-3 1v-15z" fill="#0F417C"/>
<path transform="translate(1212,479)" d="m0 0 2 2 26 1v5h-28z" fill="#0B3580"/>
<path transform="translate(834,458)" d="m0 0h18l1 5-18 1-1 17-3-4-1-4v-7l1-5h2z" fill="#10437B"/>
<path transform="translate(947,482)" d="m0 0h22l1 4-1 1h-27l4-3z" fill="#0F3F7C"/>
<path transform="translate(834,482)" d="m0 0h22l1 5h-28l4-3z" fill="#10437B"/>
<path transform="translate(1089,482)" d="m0 0h22v5h-28v-1l5-1z" fill="#10437B"/>
<path transform="translate(1212,438)" d="m0 0h27v5h-21l3-3-9-1z" fill="#10417B"/>
<path transform="translate(1216,463)" d="m0 0h1v19l-4-1-1 5h-1v-17h2l1-5z" fill="#10437B"/>
<path transform="translate(1051,438)" d="m0 0h13l6 4 1 4-9-3-14-1 1-3z" fill="#0A3281"/>
<path transform="translate(1216,458)" d="m0 0h20l1 4-1 1h-19z" fill="#10437B"/>
<path transform="translate(829,466)" d="m0 0h1l1 7 2 1 1 10 22 1v1h-28z" fill="#082D83"/>
<path transform="translate(954,458)" d="m0 0h11l1 5h-15l-3-2v-2z" fill="#0E3E7D"/>
<path transform="translate(1141,467)" d="m0 0 4 3h2l4 7 2 8h2l1-2v3h-5l-7-10-3-6z" fill="#0A3281"/>
<path transform="translate(829,438)" d="m0 0h27l-1 5h-20v-1l11-1-3-1-14-1z" fill="#10417B"/>
<path transform="translate(1e3 473)" d="m0 0 1 3h2v-3l3 3 6 11h-6l-6-9-1-4z" fill="#0A3281"/>
<path transform="translate(1217,482)" d="m0 0h23v3h-24z" fill="#10417B"/>
<path transform="translate(949,441)" d="m0 0h19v2l-20 1-1 14h-3v-11h2l1-5z" fill="#11447B"/>
<path transform="translate(981,471)" d="m0 0 2 4v5h2v-8h1l1 15h-6z" fill="#093182"/>
<path transform="translate(832,443)" d="m0 0 2 1v14h-4v-11z" fill="#10437B"/>
<path transform="translate(986,465)" d="m0 0h1v16l-4-1-2-10 3-4 1 1z" fill="#11447B"/>
<path transform="translate(1137,459)" d="m0 0h2l2 2 3 4 2 5h-3l-1-2-2 1-4-9z" fill="#0F417C"/>
<path transform="translate(1123,438)" d="m0 0 5 1 4 5v3l-4 1-3-6-2 3z" fill="#093282"/>
<path transform="translate(1e3 463)" d="m0 0 3 1h-2l3 9 1 5h-2v-2h-2l-1-2-2-1 1-9z" fill="#10427B"/>
<path transform="translate(946,463)" d="m0 0 2 1-1 18h-1l-1-5h-1v-13z" fill="#11447B"/>
<path transform="translate(1088,441)" d="m0 0m-1 1m-1 1 2 3v10l-2 5h-1v-16z" fill="#11447B"/>
<path transform="translate(1212,439)" d="m0 0h16v1l-15 3-1 4z" fill="#082D83"/>
<path transform="translate(843,459)" d="m0 0h10v4h-10z" fill="#0A3281"/>
<path transform="translate(1212,457)" d="m0 0 2 2 2-2 1 6-2 4-3 2z" fill="#082D84"/>
<path transform="translate(997,463)" d="m0 0 4 1v9l-3-3-4-5z" fill="#0B3480"/>
<path transform="translate(1141,467)" d="m0 0 4 3h2l1 4-3 3-4-7z" fill="#0B3580"/>
<path transform="translate(1050,441)" d="m0 0 5 1-3 2-7 5-1-3h2v-2h2v-2z" fill="#10437B"/>
<path transform="translate(868,438)" d="m0 0 5 1-1 4h-2l-2 4z" fill="#093082"/>
</svg>
